<svg width="575" height="204" viewBox="0 0 575 204" fill="none" xmlns="http://www.w3.org/2000/svg">
<path d="M20.4773 76L0.777344 2H10.8773L26.1773 61.6L42.2773 2H51.8773L67.9773 61.4L83.1773 2H93.2773L73.5773 76H62.3773L47.0773 19.1L31.6773 76H20.4773ZM105.266 76V-5.00679e-06H114.766V30.7H115.366C115.832 29.9 116.599 28.8 117.666 27.4C118.799 26 120.399 24.7667 122.466 23.7C124.532 22.5667 127.132 22 130.266 22C134.132 22 137.432 22.9 140.166 24.7C142.899 26.4333 144.966 28.8 146.366 31.8C147.832 34.8 148.566 38.1667 148.566 41.9V76H139.066V42.5C139.066 38.9667 138.066 36.0333 136.066 33.7C134.132 31.3667 131.299 30.2 127.566 30.2C124.566 30.2 122.132 30.9667 120.266 32.5C118.399 33.9667 116.999 35.9333 116.066 38.4C115.199 40.8 114.766 43.3667 114.766 46.1V76H105.266ZM186.666 77C182.333 77 178.566 76.2333 175.366 74.7C172.233 73.1 169.633 70.9667 167.566 68.3C165.566 65.6333 164.066 62.7 163.066 59.5C162.066 56.2333 161.566 52.9 161.566 49.5C161.566 46.1667 162.033 42.8667 162.966 39.6C163.966 36.3333 165.466 33.3667 167.466 30.7C169.533 28.0333 172.1 25.9333 175.166 24.4C178.3 22.8 182 22 186.266 22C190.8 22 194.8 23.0333 198.266 25.1C201.733 27.1667 204.466 30.2333 206.466 34.3C208.466 38.3667 209.466 43.4667 209.466 49.6V52.4H171.166C171.366 55.4 172.066 58.1667 173.266 60.7C174.533 63.1667 176.3 65.1667 178.566 66.7C180.833 68.1667 183.533 68.9 186.666 68.9C189.4 68.9 191.6 68.4667 193.266 67.6C195 66.6667 196.366 65.6 197.366 64.4C198.366 63.2 199.033 62.1667 199.366 61.3C199.766 60.3667 199.966 59.9 199.966 59.9H208.866C208.866 59.9 208.7 60.5 208.366 61.7C208.033 62.8333 207.433 64.2333 206.566 65.9C205.7 67.5667 204.433 69.2667 202.766 71C201.1 72.6667 198.966 74.1 196.366 75.3C193.766 76.4333 190.533 77 186.666 77ZM171.266 45H200.166C200.033 41.5333 199.3 38.7333 197.966 36.6C196.633 34.4 194.933 32.7667 192.866 31.7C190.8 30.6333 188.6 30.1 186.266 30.1C182.066 30.1 178.633 31.4667 175.966 34.2C173.3 36.8667 171.733 40.4667 171.266 45ZM222.43 76V23H231.93V29.6H232.33C233.463 27.6 235.13 25.8333 237.33 24.3C239.53 22.7667 242.63 22 246.63 22C247.763 22 248.796 22.0667 249.73 22.2C250.663 22.2667 251.13 22.3 251.13 22.3V31.4C251.13 31.4 250.596 31.3667 249.53 31.3C248.53 31.1667 247.463 31.1 246.33 31.1C241.73 31.1 238.163 32.4333 235.63 35.1C233.163 37.7 231.93 41.9667 231.93 47.9V76H222.43ZM281.686 77C277.353 77 273.586 76.2333 270.386 74.7C267.253 73.1 264.653 70.9667 262.586 68.3C260.586 65.6333 259.086 62.7 258.086 59.5C257.086 56.2333 256.586 52.9 256.586 49.5C256.586 46.1667 257.053 42.8667 257.986 39.6C258.986 36.3333 260.486 33.3667 262.486 30.7C264.553 28.0333 267.119 25.9333 270.186 24.4C273.319 22.8 277.019 22 281.286 22C285.819 22 289.819 23.0333 293.286 25.1C296.753 27.1667 299.486 30.2333 301.486 34.3C303.486 38.3667 304.486 43.4667 304.486 49.6V52.4H266.186C266.386 55.4 267.086 58.1667 268.286 60.7C269.553 63.1667 271.319 65.1667 273.586 66.7C275.853 68.1667 278.553 68.9 281.686 68.9C284.419 68.9 286.619 68.4667 288.286 67.6C290.019 66.6667 291.386 65.6 292.386 64.4C293.386 63.2 294.053 62.1667 294.386 61.3C294.786 60.3667 294.986 59.9 294.986 59.9H303.886C303.886 59.9 303.719 60.5 303.386 61.7C303.053 62.8333 302.453 64.2333 301.586 65.9C300.719 67.5667 299.453 69.2667 297.786 71C296.119 72.6667 293.986 74.1 291.386 75.3C288.786 76.4333 285.553 77 281.686 77ZM266.286 45H295.186C295.053 41.5333 294.319 38.7333 292.986 36.6C291.653 34.4 289.953 32.7667 287.886 31.7C285.819 30.6333 283.619 30.1 281.286 30.1C277.086 30.1 273.653 31.4667 270.986 34.2C268.319 36.8667 266.753 40.4667 266.286 45ZM346.696 12.9C344.896 12.9 343.396 12.3 342.196 11.1C341.063 9.89999 340.496 8.46666 340.496 6.8C340.496 5.06666 341.063 3.59999 342.196 2.39999C343.396 1.2 344.896 0.599999 346.696 0.599999C348.429 0.599999 349.896 1.2 351.096 2.39999C352.296 3.59999 352.896 5.06666 352.896 6.8C352.896 8.46666 352.296 9.89999 351.096 11.1C349.896 12.3 348.429 12.9 346.696 12.9ZM341.996 76V23H351.496V76H341.996ZM386.263 77C382.197 77 378.83 76.4333 376.163 75.3C373.563 74.1667 371.497 72.7667 369.963 71.1C368.43 69.3667 367.297 67.6667 366.563 66C365.83 64.2667 365.363 62.8333 365.163 61.7C364.963 60.5667 364.863 60 364.863 60H374.463C374.463 60 374.563 60.4667 374.763 61.4C375.03 62.2667 375.53 63.3 376.263 64.5C377.063 65.6333 378.263 66.6667 379.863 67.6C381.53 68.4667 383.73 68.9 386.463 68.9C389.597 68.9 392.03 68.1667 393.763 66.7C395.497 65.1667 396.363 63.3 396.363 61.1C396.363 59.1667 395.663 57.6333 394.263 56.5C392.93 55.3667 390.997 54.5 388.463 53.9L381.263 52.2C378.597 51.5333 376.097 50.6333 373.763 49.5C371.43 48.3667 369.53 46.8333 368.063 44.9C366.663 42.9 365.963 40.4333 365.963 37.5C365.963 32.9667 367.663 29.2667 371.063 26.4C374.463 23.4667 378.897 22 384.363 22C388.03 22 391.063 22.5333 393.463 23.6C395.863 24.6 397.763 25.8667 399.163 27.4C400.63 28.9333 401.697 30.4667 402.363 32C403.097 33.5333 403.563 34.8333 403.763 35.9C403.963 36.9 404.063 37.4 404.063 37.4H394.863C394.863 37.4 394.763 37.0333 394.563 36.3C394.363 35.5 393.897 34.6333 393.163 33.7C392.497 32.7 391.463 31.8333 390.063 31.1C388.663 30.3 386.797 29.9 384.463 29.9C381.263 29.9 378.93 30.6333 377.463 32.1C375.997 33.5667 375.263 35.1667 375.263 36.9C375.263 38.5667 375.93 39.9333 377.263 41C378.663 42 380.463 42.7667 382.663 43.3L389.963 45C394.497 46.0667 398.23 47.8333 401.163 50.3C404.163 52.7 405.663 56.1667 405.663 60.7C405.663 63.6333 404.897 66.3667 403.363 68.9C401.83 71.3667 399.63 73.3333 396.763 74.8C393.897 76.2667 390.397 77 386.263 77ZM440.691 76V23H450.191V30.7H450.591C451.125 29.7 451.958 28.5333 453.091 27.2C454.225 25.8 455.758 24.6 457.691 23.6C459.691 22.5333 462.191 22 465.191 22C469.125 22 472.425 22.9667 475.091 24.9C477.825 26.7667 479.858 29.3 481.191 32.5H481.291C482.758 29.5667 484.825 27.1 487.491 25.1C490.225 23.0333 493.758 22 498.091 22C503.825 22 508.225 23.9667 511.291 27.9C514.425 31.7667 515.991 36.7667 515.991 42.9V76H506.491V43.4C506.491 39.4667 505.558 36.3 503.691 33.9C501.825 31.4333 499.125 30.2 495.591 30.2C492.525 30.2 490.058 31.0333 488.191 32.7C486.391 34.3667 485.091 36.4333 484.291 38.9C483.491 41.3667 483.091 43.8333 483.091 46.3V76H473.591V43.4C473.591 39.4667 472.658 36.3 470.791 33.9C468.991 31.4333 466.291 30.2 462.691 30.2C459.625 30.2 457.158 31.0333 455.291 32.7C453.491 34.3667 452.191 36.4667 451.391 39C450.591 41.4667 450.191 43.9 450.191 46.3V76H440.691ZM528.922 95.5C527.389 95.5 526.089 95.4333 525.022 95.3C523.955 95.1667 523.422 95.1 523.422 95.1V87C523.422 87 523.955 87.0333 525.022 87.1C526.155 87.2333 527.355 87.3 528.622 87.3C532.555 87.3 535.755 86.4667 538.222 84.8C540.755 83.2 542.889 80.5333 544.622 76.8L524.122 23H534.022L549.322 64.4L564.722 23H574.722L554.222 76.1C551.622 82.7667 548.255 87.6667 544.122 90.8C540.055 93.9333 534.989 95.5 528.922 95.5ZM170.158 203V129H198.658C203.392 129 207.425 129.867 210.758 131.6C214.158 133.267 216.758 135.533 218.558 138.4C220.358 141.2 221.258 144.267 221.258 147.6C221.258 151.267 220.592 154.233 219.258 156.5C217.925 158.767 216.425 160.5 214.758 161.7C213.092 162.833 211.758 163.6 210.758 164V164.6C212.358 165.067 214.192 165.967 216.258 167.3C218.392 168.567 220.225 170.4 221.758 172.8C223.292 175.2 224.058 178.333 224.058 182.2C224.058 185.6 223.225 188.9 221.558 192.1C219.892 195.3 217.258 197.933 213.658 200C210.058 202 205.292 203 199.358 203H170.158ZM198.258 137.5H179.958V161.1H198.258C201.458 161.1 204.025 160.533 205.958 159.4C207.958 158.267 209.392 156.8 210.258 155C211.192 153.133 211.658 151.233 211.658 149.3C211.658 147.3 211.192 145.4 210.258 143.6C209.392 141.8 207.958 140.333 205.958 139.2C204.025 138.067 201.458 137.5 198.258 137.5ZM199.058 169H179.958V194.5H199.058C202.725 194.5 205.658 193.9 207.858 192.7C210.058 191.433 211.658 189.833 212.658 187.9C213.725 185.9 214.258 183.833 214.258 181.7C214.258 179.567 213.725 177.533 212.658 175.6C211.658 173.667 210.058 172.1 207.858 170.9C205.658 169.633 202.725 169 199.058 169ZM261.641 204C255.974 204 251.208 202.7 247.341 200.1C243.474 197.433 240.541 194 238.541 189.8C236.541 185.6 235.541 181.167 235.541 176.5C235.541 171.767 236.541 167.333 238.541 163.2C240.541 159 243.474 155.6 247.341 153C251.208 150.333 255.974 149 261.641 149C267.308 149 272.074 150.333 275.941 153C279.808 155.6 282.741 159 284.741 163.2C286.741 167.333 287.741 171.767 287.741 176.5C287.741 181.167 286.741 185.6 284.741 189.8C282.741 194 279.808 197.433 275.941 200.1C272.074 202.7 267.308 204 261.641 204ZM261.641 195.7C265.241 195.7 268.241 194.8 270.641 193C273.108 191.133 274.941 188.733 276.141 185.8C277.408 182.867 278.041 179.767 278.041 176.5C278.041 173.167 277.408 170.067 276.141 167.2C274.941 164.267 273.108 161.9 270.641 160.1C268.241 158.233 265.241 157.3 261.641 157.3C258.108 157.3 255.108 158.233 252.641 160.1C250.174 161.9 248.308 164.267 247.041 167.2C245.841 170.067 245.241 173.167 245.241 176.5C245.241 179.767 245.841 182.867 247.041 185.8C248.308 188.733 250.174 191.133 252.641 193C255.108 194.8 258.108 195.7 261.641 195.7ZM325.313 204C319.646 204 314.88 202.7 311.013 200.1C307.146 197.433 304.213 194 302.213 189.8C300.213 185.6 299.213 181.167 299.213 176.5C299.213 171.767 300.213 167.333 302.213 163.2C304.213 159 307.146 155.6 311.013 153C314.88 150.333 319.646 149 325.313 149C330.98 149 335.746 150.333 339.613 153C343.48 155.6 346.413 159 348.413 163.2C350.413 167.333 351.413 171.767 351.413 176.5C351.413 181.167 350.413 185.6 348.413 189.8C346.413 194 343.48 197.433 339.613 200.1C335.746 202.7 330.98 204 325.313 204ZM325.313 195.7C328.913 195.7 331.913 194.8 334.313 193C336.78 191.133 338.613 188.733 339.813 185.8C341.08 182.867 341.713 179.767 341.713 176.5C341.713 173.167 341.08 170.067 339.813 167.2C338.613 164.267 336.78 161.9 334.313 160.1C331.913 158.233 328.913 157.3 325.313 157.3C321.78 157.3 318.78 158.233 316.313 160.1C313.846 161.9 311.98 164.267 310.713 167.2C309.513 170.067 308.913 173.167 308.913 176.5C308.913 179.767 309.513 182.867 310.713 185.8C311.98 188.733 313.846 191.133 316.313 193C318.78 194.8 321.78 195.7 325.313 195.7ZM365.373 203V127H374.873V171.2L395.973 150H408.373L383.973 174.1L408.873 203H396.773L374.873 177.5V203H365.373Z" fill="black"/>
</svg>
