<?xml version="1.0" encoding="utf-8"?>
<!-- Generator: Adobe Illustrator 19.2.1, SVG Export Plug-In . SVG Version: 6.00 Build 0)  -->
<svg version="1.1" id="layer" xmlns="http://www.w3.org/2000/svg" xmlns:xlink="http://www.w3.org/1999/xlink" x="0px" y="0px"
	 viewBox="0 0 652 652" style="enable-background:new 0 0 652 652;" xml:space="preserve">
<style type="text/css">
	.st0{fill:#DB1830;}
	.st1{fill:#004185;}
</style>
<path class="st0" d="M224.5,297.8c-50.8,12-50.4-13.2-93.5-7.9l-22.1,10.2c45.3-8.1,46.3,22.8,107.6,5.4c2.8-0.8,5.4-1.6,8-2.2
	L224.5,297.8z M224.5,309.7c-9,1.1-17.9,2.9-26.7,5.4c-64.5,18.1-62.8-11.9-110.4-5l-22,10.2c46.6-6.3,48.5,22.9,111.8,5.4
	c20.6-5.7,35.3-7.3,47.2-6.5V309.7z M224.5,332c-15.7-3.5-34-5.6-67,3.4c-65.4,18-64.4-11.4-113.5-5l-22,10.2
	c47.6-6.1,50,22.7,114.5,5.4c47.9-12.8,64.4-3.5,88,1.4L224.5,332z"/>
<path class="st1" d="M617.6,306.2c-2.4,0-4.3-1.9-4.3-4.3c0-2.4,1.9-4.3,4.3-4.3c2.4,0,4.3,1.9,4.3,4.3
	C621.9,304.3,620,306.2,617.6,306.2z M617.6,298.3c-2,0-3.6,1.6-3.6,3.6c0,2,1.6,3.6,3.6,3.6c2,0,3.6-1.6,3.6-3.6c0,0,0,0,0,0
	C621.3,299.9,619.7,298.3,617.6,298.3z"/>
<path class="st1" d="M240.8,297.6h37.7v9.8h-26.8v10.2h23.6v9.8h-23.6v10.5H279v9.8h-38.1V297.6z M287.1,297.6h11.9l13.2,21.2
	l13.2-21.2h11.9v50h-10.9V315l-14.1,21.4h-0.3l-13.9-21.2v32.5h-10.8V297.6z M347.1,297.6h20.4c11.9,0,19.2,7.1,19.2,17.3v0.1
	c0,11.6-9,17.6-20.2,17.6h-8.4v15h-11L347.1,297.6z M366.8,322.9c4.2,0.5,8.1-2.5,8.7-6.7c0-0.3,0.1-0.6,0.1-0.9v-0.1
	c0-4.9-3.4-7.6-8.9-7.6h-8.5v15.3H366.8z M390.5,322.8v-0.1c0.4-14.7,12.6-26.3,27.3-25.9c14.1,0.4,25.4,11.7,25.9,25.7v0.1
	c-0.4,14.7-12.6,26.3-27.3,25.9C402.3,348.1,390.9,336.9,390.5,322.8z M432.1,322.8v-0.1c0.3-8.4-6.3-15.4-14.7-15.7
	c-0.2,0-0.3,0-0.5,0c-8.3,0-15,6.6-15,14.9c0,0.2,0,0.5,0,0.7v0.1c-0.3,8.4,6.3,15.4,14.7,15.7c0.2,0,0.3,0,0.5,0
	c8.3,0,15-6.6,15-14.9C432.2,323.3,432.2,323,432.1,322.8z M444.3,297.6h11.8l10.4,33.5l11.2-33.5h9.4l11.2,33.5l10.4-33.5h11.5
	l-17.1,50h-9.6l-11.3-32.2L471,347.7h-9.6L444.3,297.6z M525.3,297.6H563v9.8h-26.8v10.2h23.6v9.8h-23.6v10.5h27.2v9.8h-38.1V297.6z
	 M571.5,297.6h22.9c5.3-0.3,10.6,1.5,14.6,5.1c2.9,3.1,4.5,7.2,4.3,11.4v0.1c0.3,7-4.1,13.4-10.7,15.5l12.2,17.9h-12.9l-10.7-16
	h-8.7v16h-11L571.5,297.6z M593.7,321.9c5.4,0,8.4-2.9,8.4-7.1v-0.1c0-4.7-3.3-7.1-8.7-7.1h-10.9v14.4H593.7z M616.1,299.7h1.9
	c0.5,0,0.9,0.1,1.3,0.4c0.2,0.3,0.4,0.6,0.4,0.9v0c0,0.6-0.4,1.2-1,1.3l1.2,1.6h-0.9l-1.1-1.5h-1v1.5h-0.8L616.1,299.7z M618,301.9
	c0.5,0,0.9-0.3,0.9-0.7v0c0-0.5-0.3-0.7-0.9-0.7h-1.1v1.5H618z"/>
</svg>
