<svg width="521" height="77" viewBox="0 0 521 77" fill="none" xmlns="http://www.w3.org/2000/svg">
<path d="M0.361329 76V2H10.1613V35.4L42.1613 2.1H54.9613L20.3613 37.6L56.4613 76H43.2613L10.1613 40.7V76H0.361329ZM85.252 22C88.5853 22 91.3853 22.5333 93.652 23.6C95.9186 24.6667 97.752 25.9333 99.152 27.4C100.552 28.8 101.619 30.1333 102.352 31.4H102.952V23H112.452V76H102.952V67.6H102.352C101.619 68.8667 100.552 70.2333 99.152 71.7C97.752 73.1667 95.9186 74.4333 93.652 75.5C91.3853 76.5 88.5853 77 85.252 77C81.252 77 77.752 76.2333 74.752 74.7C71.752 73.1 69.252 71 67.252 68.4C65.252 65.7333 63.752 62.7667 62.752 59.5C61.752 56.2333 61.252 52.9 61.252 49.5C61.252 46.1 61.752 42.7667 62.752 39.5C63.752 36.2333 65.252 33.3 67.252 30.7C69.252 28.0333 71.752 25.9333 74.752 24.4C77.752 22.8 81.252 22 85.252 22ZM86.852 30.1C83.3186 30.1 80.352 31.0667 77.952 33C75.552 34.8667 73.752 37.2667 72.552 40.2C71.4186 43.1333 70.852 46.2333 70.852 49.5C70.852 52.7 71.4186 55.8 72.552 58.8C73.752 61.7333 75.552 64.1667 77.952 66.1C80.352 67.9667 83.3186 68.9 86.852 68.9C90.3853 68.9 93.3186 67.9667 95.652 66.1C98.052 64.1667 99.8186 61.7333 100.952 58.8C102.152 55.8 102.752 52.7 102.752 49.5C102.752 46.2333 102.152 43.1333 100.952 40.2C99.8186 37.2667 98.052 34.8667 95.652 33C93.3186 31.0667 90.3853 30.1 86.852 30.1ZM126.412 76V23H135.912V30.7H136.512C136.979 29.9 137.745 28.8 138.812 27.4C139.945 26 141.545 24.7667 143.612 23.7C145.679 22.5667 148.279 22 151.412 22C155.279 22 158.579 22.9 161.312 24.7C164.045 26.4333 166.112 28.8 167.512 31.8C168.979 34.8 169.712 38.1667 169.712 41.9V76H160.212V42.5C160.212 38.9667 159.212 36.0333 157.212 33.7C155.279 31.3667 152.445 30.2 148.712 30.2C145.712 30.2 143.279 30.9667 141.412 32.5C139.545 33.9667 138.145 35.9333 137.212 38.4C136.345 40.8 135.912 43.3667 135.912 46.1V76H126.412ZM211.936 77C208.603 77 205.803 76.4667 203.536 75.4C201.27 74.3333 199.436 73.0667 198.036 71.6C196.703 70.1333 195.636 68.8 194.836 67.6H194.236V76H184.736V-5.00679e-06H194.236V31.4H194.836C195.636 30.1333 196.703 28.7667 198.036 27.3C199.436 25.8333 201.27 24.6 203.536 23.6C205.803 22.5333 208.603 22 211.936 22C215.936 22 219.436 22.8 222.436 24.4C225.436 25.9333 227.936 28.0333 229.936 30.7C231.936 33.3 233.436 36.2333 234.436 39.5C235.436 42.7667 235.936 46.1 235.936 49.5C235.936 52.9 235.436 56.2333 234.436 59.5C233.436 62.7667 231.936 65.7333 229.936 68.4C227.936 71 225.436 73.1 222.436 74.7C219.436 76.2333 215.936 77 211.936 77ZM210.336 68.9C213.936 68.9 216.903 67.9667 219.236 66.1C221.636 64.1667 223.403 61.7333 224.536 58.8C225.736 55.8 226.336 52.7 226.336 49.5C226.336 46.2333 225.736 43.1333 224.536 40.2C223.403 37.2667 221.636 34.8667 219.236 33C216.903 31.0667 213.936 30.1 210.336 30.1C206.803 30.1 203.836 31.0667 201.436 33C199.103 34.8667 197.336 37.2667 196.136 40.2C195.003 43.1333 194.436 46.2333 194.436 49.5C194.436 52.7 195.003 55.8 196.136 58.8C197.336 61.7333 199.103 64.1667 201.436 66.1C203.836 67.9667 206.803 68.9 210.336 68.9ZM271.482 22C274.816 22 277.616 22.5333 279.882 23.6C282.149 24.6667 283.982 25.9333 285.382 27.4C286.782 28.8 287.849 30.1333 288.582 31.4H289.182V23H298.682V76H289.182V67.6H288.582C287.849 68.8667 286.782 70.2333 285.382 71.7C283.982 73.1667 282.149 74.4333 279.882 75.5C277.616 76.5 274.816 77 271.482 77C267.482 77 263.982 76.2333 260.982 74.7C257.982 73.1 255.482 71 253.482 68.4C251.482 65.7333 249.982 62.7667 248.982 59.5C247.982 56.2333 247.482 52.9 247.482 49.5C247.482 46.1 247.982 42.7667 248.982 39.5C249.982 36.2333 251.482 33.3 253.482 30.7C255.482 28.0333 257.982 25.9333 260.982 24.4C263.982 22.8 267.482 22 271.482 22ZM273.082 30.1C269.549 30.1 266.582 31.0667 264.182 33C261.782 34.8667 259.982 37.2667 258.782 40.2C257.649 43.1333 257.082 46.2333 257.082 49.5C257.082 52.7 257.649 55.8 258.782 58.8C259.982 61.7333 261.782 64.1667 264.182 66.1C266.582 67.9667 269.549 68.9 273.082 68.9C276.616 68.9 279.549 67.9667 281.882 66.1C284.282 64.1667 286.049 61.7333 287.182 58.8C288.382 55.8 288.982 52.7 288.982 49.5C288.982 46.2333 288.382 43.1333 287.182 40.2C286.049 37.2667 284.282 34.8667 281.882 33C279.549 31.0667 276.616 30.1 273.082 30.1ZM312.643 76V23H322.143V30.7H322.743C323.209 29.9 323.976 28.8 325.043 27.4C326.176 26 327.776 24.7667 329.843 23.7C331.909 22.5667 334.509 22 337.643 22C341.509 22 344.809 22.9 347.543 24.7C350.276 26.4333 352.343 28.8 353.743 31.8C355.209 34.8 355.943 38.1667 355.943 41.9V76H346.443V42.5C346.443 38.9667 345.443 36.0333 343.443 33.7C341.509 31.3667 338.676 30.2 334.943 30.2C331.943 30.2 329.509 30.9667 327.643 32.5C325.776 33.9667 324.376 35.9333 323.443 38.4C322.576 40.8 322.143 43.3667 322.143 46.1V76H312.643ZM370.967 76V2H397.367C403.033 2 407.733 3.16666 411.467 5.5C415.267 7.83333 418.1 10.8667 419.967 14.6C421.9 18.2667 422.867 22.1 422.867 26.1C422.867 30.1667 421.9 34.0667 419.967 37.8C418.1 41.4667 415.267 44.5 411.467 46.9C407.733 49.2333 403.033 50.4 397.367 50.4H380.767V76H370.967ZM397.367 10.6H380.767V41.8H397.367C400.9 41.8 403.833 41.0333 406.167 39.5C408.5 37.9667 410.233 36.0333 411.367 33.7C412.567 31.3 413.167 28.8 413.167 26.2C413.167 23.6 412.567 21.1 411.367 18.7C410.233 16.3 408.5 14.3667 406.167 12.9C403.833 11.3667 400.9 10.6 397.367 10.6ZM434.322 76V23H443.822V29.6H444.222C445.356 27.6 447.022 25.8333 449.222 24.3C451.422 22.7667 454.522 22 458.522 22C459.656 22 460.689 22.0667 461.622 22.2C462.556 22.2667 463.022 22.3 463.022 22.3V31.4C463.022 31.4 462.489 31.3667 461.422 31.3C460.422 31.1667 459.356 31.1 458.222 31.1C453.622 31.1 450.056 32.4333 447.522 35.1C445.056 37.7 443.822 41.9667 443.822 47.9V76H434.322ZM494.579 77C488.912 77 484.145 75.7 480.279 73.1C476.412 70.4333 473.479 67 471.479 62.8C469.479 58.6 468.479 54.1667 468.479 49.5C468.479 44.7667 469.479 40.3333 471.479 36.2C473.479 32 476.412 28.6 480.279 26C484.145 23.3333 488.912 22 494.579 22C500.245 22 505.012 23.3333 508.879 26C512.745 28.6 515.679 32 517.679 36.2C519.679 40.3333 520.679 44.7667 520.679 49.5C520.679 54.1667 519.679 58.6 517.679 62.8C515.679 67 512.745 70.4333 508.879 73.1C505.012 75.7 500.245 77 494.579 77ZM494.579 68.7C498.179 68.7 501.179 67.8 503.579 66C506.045 64.1333 507.879 61.7333 509.079 58.8C510.345 55.8667 510.979 52.7667 510.979 49.5C510.979 46.1667 510.345 43.0667 509.079 40.2C507.879 37.2667 506.045 34.9 503.579 33.1C501.179 31.2333 498.179 30.3 494.579 30.3C491.045 30.3 488.045 31.2333 485.579 33.1C483.112 34.9 481.245 37.2667 479.979 40.2C478.779 43.0667 478.179 46.1667 478.179 49.5C478.179 52.7667 478.779 55.8667 479.979 58.8C481.245 61.7333 483.112 64.1333 485.579 66C488.045 67.8 491.045 68.7 494.579 68.7Z" fill="black"/>
</svg>
