<svg width="366" height="96" viewBox="0 0 366 96" fill="none" xmlns="http://www.w3.org/2000/svg">
<path d="M0.423829 76V2H13.3238L35.1238 46L56.8238 2H69.7238V76H60.1238V16.4L39.7238 57H30.4238L10.0238 16.2V76H0.423829ZM86.6777 95.5C85.1444 95.5 83.8444 95.4333 82.7777 95.3C81.7111 95.1667 81.1777 95.1 81.1777 95.1V87C81.1777 87 81.7111 87.0333 82.7777 87.1C83.9111 87.2333 85.1111 87.3 86.3777 87.3C90.3111 87.3 93.5111 86.4667 95.9777 84.8C98.5111 83.2 100.644 80.5333 102.378 76.8L81.8777 23H91.7777L107.078 64.4L122.478 23H132.478L111.978 76.1C109.378 82.7667 106.011 87.6667 101.878 90.8C97.8111 93.9333 92.7444 95.5 86.6777 95.5ZM143.979 76V2H156.879L178.679 46L200.379 2H213.279V76H203.679V16.4L183.279 57H173.979L153.579 16.2V76H143.979ZM272.732 89.8C264.999 89.8 258.232 88.5333 252.432 86C246.699 83.5333 241.932 80.2 238.132 76C234.332 71.8 231.466 67.0667 229.532 61.8C227.666 56.5333 226.732 51.1667 226.732 45.7C226.732 40.1 227.666 34.6667 229.532 29.4C231.466 24.0667 234.299 19.2667 238.032 15C241.832 10.7333 246.532 7.33333 252.132 4.8C257.799 2.26666 264.332 0.999994 271.732 0.999994C277.532 0.999994 283.099 1.93333 288.432 3.79999C293.766 5.66666 298.499 8.4 302.632 12C306.832 15.6 310.132 20.0667 312.532 25.4C314.999 30.6667 316.232 36.7 316.232 43.5C316.232 48.0333 315.532 52.1667 314.132 55.9C312.799 59.5667 310.799 62.5 308.132 64.7C305.532 66.8333 302.299 67.9 298.432 67.9C294.766 67.9 291.666 67.0667 289.132 65.4C286.599 63.6667 284.799 61.3667 283.732 58.5H283.132C282.732 59.4333 281.932 60.6667 280.732 62.2C279.599 63.6667 277.966 65 275.832 66.2C273.699 67.3333 270.999 67.9 267.732 67.9C263.599 67.9 260.132 66.8333 257.332 64.7C254.532 62.5 252.432 59.7333 251.032 56.4C249.632 53 248.932 49.4667 248.932 45.8C248.932 42.1333 249.599 38.6333 250.932 35.3C252.332 31.9667 254.399 29.2333 257.132 27.1C259.932 24.9667 263.399 23.9 267.532 23.9C270.866 23.9 273.666 24.6 275.932 26C278.199 27.3333 279.932 28.9333 281.132 30.8H281.632V24.7H290.732V43.8C290.732 44.8 290.766 46.2 290.832 48C290.966 49.7333 291.266 51.5667 291.732 53.5C292.199 55.3667 292.999 56.9667 294.132 58.3C295.266 59.5667 296.832 60.2 298.832 60.2C301.766 60.2 303.932 58.7667 305.332 55.9C306.732 53.0333 307.432 48.9 307.432 43.5C307.432 37.9 306.466 32.9667 304.532 28.7C302.599 24.3667 299.966 20.7333 296.632 17.8C293.299 14.8667 289.499 12.6667 285.232 11.2C280.966 9.73333 276.466 9 271.732 9C265.799 9 260.566 10.0333 256.032 12.1C251.566 14.1667 247.799 16.9667 244.732 20.5C241.732 23.9667 239.466 27.8667 237.932 32.2C236.399 36.5333 235.632 40.9667 235.632 45.5C235.632 50.0333 236.399 54.4667 237.932 58.8C239.466 63.0667 241.766 66.9333 244.832 70.4C247.899 73.8 251.732 76.5 256.332 78.5C260.999 80.5667 266.432 81.6 272.632 81.6C277.299 81.6 281.399 81.1333 284.932 80.2C288.466 79.2667 291.232 78.3333 293.232 77.4C295.232 76.5333 296.232 76.1 296.232 76.1L299.332 83.6C299.332 83.6 298.266 84.1 296.132 85.1C294.066 86.1667 291.066 87.2 287.132 88.2C283.199 89.2667 278.399 89.8 272.732 89.8ZM269.632 60.3C272.232 60.3 274.366 59.6 276.032 58.2C277.699 56.8 278.932 55 279.732 52.8C280.599 50.5333 281.032 48.2333 281.032 45.9C281.032 43.5667 280.599 41.3333 279.732 39.2C278.932 37 277.699 35.2 276.032 33.8C274.366 32.3333 272.232 31.6 269.632 31.6C267.099 31.6 264.966 32.3 263.232 33.7C261.566 35.1 260.299 36.9 259.432 39.1C258.632 41.2333 258.232 43.5 258.232 45.9C258.232 48.3 258.632 50.6 259.432 52.8C260.299 55 261.566 56.8 263.232 58.2C264.966 59.6 267.099 60.3 269.632 60.3ZM334.921 12.9C333.121 12.9 331.621 12.3 330.421 11.1C329.287 9.89999 328.721 8.46666 328.721 6.8C328.721 5.06666 329.287 3.59999 330.421 2.39999C331.621 1.2 333.121 0.599999 334.921 0.599999C336.654 0.599999 338.121 1.2 339.321 2.39999C340.521 3.59999 341.121 5.06666 341.121 6.8C341.121 8.46666 340.521 9.89999 339.321 11.1C338.121 12.3 336.654 12.9 334.921 12.9ZM330.221 76V23H339.721V76H330.221ZM356.088 76L356.188 -5.00679e-06H365.588V76H356.088Z" fill="black"/>
</svg>
