<?xml version="1.0" encoding="utf-8"?><!-- Uploaded to: SVG Repo, www.svgrepo.com, Generator: SVG Repo Mixer Tools -->
<svg fill="#000000" width="800px" height="800px" viewBox="0 0 24 24" id="maximize-alt" data-name="Flat Color" xmlns="http://www.w3.org/2000/svg" class="icon flat-color"><path id="primary" d="M10,4H5.41l5.3,5.29a1,1,0,0,1,0,1.42,1,1,0,0,1-1.42,0L4,5.41V10a1,1,0,0,1-2,0V4A2,2,0,0,1,4,2h6a1,1,0,0,1,0,2Zm11,9a1,1,0,0,0-1,1v4.59l-5.29-5.3a1,1,0,0,0-1.42,1.42L18.59,20H14a1,1,0,0,0,0,2h6a2,2,0,0,0,2-2V14A1,1,0,0,0,21,13Z" style="fill: rgb(0, 0, 0);"></path></svg>