<svg width="483" height="77" viewBox="0 0 483 77" fill="none" xmlns="http://www.w3.org/2000/svg">
<path d="M28.2668 77C24.0001 77 20.3335 76.4667 17.2668 75.4C14.2668 74.2667 11.7668 72.8333 9.7668 71.1C7.7668 69.3 6.1668 67.4333 4.9668 65.5C3.7668 63.5667 2.8668 61.7333 2.2668 60C1.6668 58.2 1.2668 56.7667 1.0668 55.7C0.933464 54.5667 0.866797 54 0.866797 54H10.8668C10.8668 54 10.9668 54.4667 11.1668 55.4C11.3668 56.3333 11.7668 57.5 12.3668 58.9C13.0335 60.3 14.0001 61.7333 15.2668 63.2C16.5335 64.6 18.2335 65.7667 20.3668 66.7C22.5001 67.6333 25.2001 68.1 28.4668 68.1C33.4001 68.1 37.3001 66.9333 40.1668 64.6C43.0335 62.2 44.4668 59.1 44.4668 55.3C44.4668 52.0333 43.3668 49.5 41.1668 47.7C39.0335 45.9 35.9668 44.5 31.9668 43.5L22.1668 41.1C18.7001 40.2333 15.4668 39.0333 12.4668 37.5C9.53346 35.9 7.1668 33.8333 5.3668 31.3C3.63346 28.7 2.7668 25.4667 2.7668 21.6C2.7668 17.2667 3.83346 13.5667 5.9668 10.5C8.10013 7.43333 11.0001 5.1 14.6668 3.5C18.3335 1.83333 22.5001 0.999994 27.1668 0.999994C31.7001 0.999994 35.4668 1.69999 38.4668 3.1C41.4668 4.5 43.8668 6.23333 45.6668 8.3C47.4668 10.3 48.8001 12.3333 49.6668 14.4C50.5335 16.4 51.1001 18.1 51.3668 19.5C51.6335 20.9 51.7668 21.6 51.7668 21.6H42.1668C42.1668 21.6 42.0335 21 41.7668 19.8C41.5001 18.6 40.8668 17.2333 39.8668 15.7C38.8668 14.1 37.3335 12.7 35.2668 11.5C33.2001 10.3 30.4001 9.7 26.8668 9.7C22.0668 9.7 18.4335 10.8333 15.9668 13.1C13.5668 15.3667 12.3668 17.9667 12.3668 20.9C12.3668 23.5667 13.3335 25.7333 15.2668 27.4C17.2001 29 19.8668 30.2333 23.2668 31.1L33.8668 33.7C37.6668 34.6333 41.1001 36 44.1668 37.8C47.2335 39.5333 49.6668 41.8 51.4668 44.6C53.2668 47.3333 54.1668 50.7 54.1668 54.7C54.1668 58.7 53.1668 62.4 51.1668 65.8C49.2335 69.2 46.3335 71.9333 42.4668 74C38.6668 76 33.9335 77 28.2668 77ZM91.0434 77C85.3767 77 80.61 75.7 76.7434 73.1C72.8767 70.4333 69.9434 67 67.9434 62.8C65.9434 58.6 64.9434 54.1667 64.9434 49.5C64.9434 44.7667 65.9434 40.3333 67.9434 36.2C69.9434 32 72.8767 28.6 76.7434 26C80.61 23.3333 85.3767 22 91.0434 22C96.71 22 101.477 23.3333 105.343 26C109.21 28.6 112.143 32 114.143 36.2C116.143 40.3333 117.143 44.7667 117.143 49.5C117.143 54.1667 116.143 58.6 114.143 62.8C112.143 67 109.21 70.4333 105.343 73.1C101.477 75.7 96.71 77 91.0434 77ZM91.0434 68.7C94.6434 68.7 97.6434 67.8 100.043 66C102.51 64.1333 104.343 61.7333 105.543 58.8C106.81 55.8667 107.443 52.7667 107.443 49.5C107.443 46.1667 106.81 43.0667 105.543 40.2C104.343 37.2667 102.51 34.9 100.043 33.1C97.6434 31.2333 94.6434 30.3 91.0434 30.3C87.51 30.3 84.51 31.2333 82.0434 33.1C79.5767 34.9 77.71 37.2667 76.4434 40.2C75.2434 43.0667 74.6434 46.1667 74.6434 49.5C74.6434 52.7667 75.2434 55.8667 76.4434 58.8C77.71 61.7333 79.5767 64.1333 82.0434 66C84.51 67.8 87.51 68.7 91.0434 68.7ZM147.404 77C142.137 77 137.937 75.3667 134.804 72.1C131.67 68.8333 130.104 64.3 130.104 58.5V23H139.604V58C139.604 61.4667 140.537 64.1333 142.404 66C144.337 67.8667 146.87 68.8 150.004 68.8C153.204 68.8 155.77 67.9667 157.704 66.3C159.637 64.6333 161.037 62.5 161.904 59.9C162.77 57.3 163.204 54.6333 163.204 51.9V23H172.704V76H163.204V68.4H162.604C162.204 69.2 161.437 70.3 160.304 71.7C159.17 73.0333 157.57 74.2667 155.504 75.4C153.437 76.4667 150.737 77 147.404 77ZM187.744 76L187.844 -5.00679e-06H197.244V76H187.744ZM213.232 76V2H239.432C244.699 2 249.066 3.03333 252.532 5.09999C255.999 7.16666 258.599 9.83333 260.332 13.1C262.066 16.3667 262.932 19.8 262.932 23.4C262.932 26.4 262.332 29.3 261.132 32.1C259.932 34.9 258.132 37.3667 255.732 39.5C253.399 41.5667 250.432 43.0667 246.832 44L265.532 76H254.432L236.532 44.9H223.032V76H213.232ZM239.332 10.6H223.032V36.5H239.332C242.399 36.5 244.932 35.8667 246.932 34.6C248.932 33.3333 250.432 31.7333 251.432 29.8C252.432 27.8 252.932 25.7333 252.932 23.6C252.932 21.4 252.432 19.3333 251.432 17.4C250.432 15.4 248.932 13.7667 246.932 12.5C244.932 11.2333 242.399 10.6 239.332 10.6ZM299.149 77C293.482 77 288.715 75.7 284.849 73.1C280.982 70.4333 278.049 67 276.049 62.8C274.049 58.6 273.049 54.1667 273.049 49.5C273.049 44.7667 274.049 40.3333 276.049 36.2C278.049 32 280.982 28.6 284.849 26C288.715 23.3333 293.482 22 299.149 22C304.815 22 309.582 23.3333 313.449 26C317.315 28.6 320.249 32 322.249 36.2C324.249 40.3333 325.249 44.7667 325.249 49.5C325.249 54.1667 324.249 58.6 322.249 62.8C320.249 67 317.315 70.4333 313.449 73.1C309.582 75.7 304.815 77 299.149 77ZM299.149 68.7C302.749 68.7 305.749 67.8 308.149 66C310.615 64.1333 312.449 61.7333 313.649 58.8C314.915 55.8667 315.549 52.7667 315.549 49.5C315.549 46.1667 314.915 43.0667 313.649 40.2C312.449 37.2667 310.615 34.9 308.149 33.1C305.749 31.2333 302.749 30.3 299.149 30.3C295.615 30.3 292.615 31.2333 290.149 33.1C287.682 34.9 285.815 37.2667 284.549 40.2C283.349 43.0667 282.749 46.1667 282.749 49.5C282.749 52.7667 283.349 55.8667 284.549 58.8C285.815 61.7333 287.682 64.1333 290.149 66C292.615 67.8 295.615 68.7 299.149 68.7ZM355.509 77C350.242 77 346.042 75.3667 342.909 72.1C339.776 68.8333 338.209 64.3 338.209 58.5V23H347.709V58C347.709 61.4667 348.642 64.1333 350.509 66C352.442 67.8667 354.976 68.8 358.109 68.8C361.309 68.8 363.876 67.9667 365.809 66.3C367.742 64.6333 369.142 62.5 370.009 59.9C370.876 57.3 371.309 54.6333 371.309 51.9V23H380.809V76H371.309V68.4H370.709C370.309 69.2 369.542 70.3 368.409 71.7C367.276 73.0333 365.676 74.2667 363.609 75.4C361.542 76.4667 358.842 77 355.509 77ZM417.35 77C411.883 77 407.75 75.6 404.95 72.8C402.216 70 400.85 66.0667 400.85 61V30.8H391.35V23H400.85V9.7H410.35V23H423.25V30.8H410.35V61C410.35 63.6667 411.083 65.6333 412.55 66.9C414.016 68.1 416.15 68.7 418.95 68.7C420.416 68.7 421.816 68.6 423.15 68.4C424.483 68.2 425.15 68.1 425.15 68.1V76.2C425.15 76.2 424.383 76.3333 422.85 76.6C421.316 76.8667 419.483 77 417.35 77ZM459.77 77C455.437 77 451.67 76.2333 448.47 74.7C445.337 73.1 442.737 70.9667 440.67 68.3C438.67 65.6333 437.17 62.7 436.17 59.5C435.17 56.2333 434.67 52.9 434.67 49.5C434.67 46.1667 435.137 42.8667 436.07 39.6C437.07 36.3333 438.57 33.3667 440.57 30.7C442.637 28.0333 445.203 25.9333 448.27 24.4C451.403 22.8 455.103 22 459.37 22C463.903 22 467.903 23.0333 471.37 25.1C474.837 27.1667 477.57 30.2333 479.57 34.3C481.57 38.3667 482.57 43.4667 482.57 49.6V52.4H444.27C444.47 55.4 445.17 58.1667 446.37 60.7C447.637 63.1667 449.403 65.1667 451.67 66.7C453.937 68.1667 456.637 68.9 459.77 68.9C462.503 68.9 464.703 68.4667 466.37 67.6C468.103 66.6667 469.47 65.6 470.47 64.4C471.47 63.2 472.137 62.1667 472.47 61.3C472.87 60.3667 473.07 59.9 473.07 59.9H481.97C481.97 59.9 481.803 60.5 481.47 61.7C481.137 62.8333 480.537 64.2333 479.67 65.9C478.803 67.5667 477.537 69.2667 475.87 71C474.203 72.6667 472.07 74.1 469.47 75.3C466.87 76.4333 463.637 77 459.77 77ZM444.37 45H473.27C473.137 41.5333 472.403 38.7333 471.07 36.6C469.737 34.4 468.037 32.7667 465.97 31.7C463.903 30.6333 461.703 30.1 459.37 30.1C455.17 30.1 451.737 31.4667 449.07 34.2C446.403 36.8667 444.837 40.4667 444.37 45Z" fill="black"/>
</svg>
